<mxfile host="65bd71144e">
    <diagram name="Side-1" id="IWg5VtYY-WumohaT8jRS">
        <mxGraphModel dx="1240" dy="668" grid="1" gridSize="10" guides="1" tooltips="1" connect="1" arrows="1" fold="1" page="1" pageScale="1" pageWidth="827" pageHeight="1169" math="0" shadow="0">
            <root>
                <mxCell id="0"/>
                <mxCell id="1" parent="0"/>
                <mxCell id="zuMCJyA3_h6aEVutl5TH-6" value="" style="rounded=0;whiteSpace=wrap;html=1;fillColor=none;dashed=1;" parent="1" vertex="1">
                    <mxGeometry x="414" y="450" width="330" height="220" as="geometry"/>
                </mxCell>
                <mxCell id="zuMCJyA3_h6aEVutl5TH-5" style="edgeStyle=none;rounded=0;orthogonalLoop=1;jettySize=auto;html=1;exitX=0.5;exitY=1;exitDx=0;exitDy=0;entryX=0.5;entryY=0;entryDx=0;entryDy=0;startArrow=classic;startFill=1;" parent="1" source="zuMCJyA3_h6aEVutl5TH-1" target="zuMCJyA3_h6aEVutl5TH-4" edge="1">
                    <mxGeometry relative="1" as="geometry"/>
                </mxCell>
                <mxCell id="zuMCJyA3_h6aEVutl5TH-1" value="Client" style="whiteSpace=wrap;html=1;" parent="1" vertex="1">
                    <mxGeometry x="470" y="370" width="90" height="40" as="geometry"/>
                </mxCell>
                <mxCell id="zuMCJyA3_h6aEVutl5TH-3" style="rounded=0;orthogonalLoop=1;jettySize=auto;html=1;exitX=0;exitY=0.5;exitDx=0;exitDy=0;startArrow=classic;startFill=1;entryX=1;entryY=0.5;entryDx=0;entryDy=0;" parent="1" source="zuMCJyA3_h6aEVutl5TH-2" target="zuMCJyA3_h6aEVutl5TH-1" edge="1">
                    <mxGeometry relative="1" as="geometry">
                        <mxPoint x="590" y="360" as="targetPoint"/>
                    </mxGeometry>
                </mxCell>
                <mxCell id="zuMCJyA3_h6aEVutl5TH-2" value="Oauth" style="whiteSpace=wrap;html=1;" parent="1" vertex="1">
                    <mxGeometry x="620" y="370" width="90" height="40" as="geometry"/>
                </mxCell>
                <mxCell id="zuMCJyA3_h6aEVutl5TH-9" style="edgeStyle=none;rounded=0;orthogonalLoop=1;jettySize=auto;html=1;exitX=0.5;exitY=1;exitDx=0;exitDy=0;entryX=0.5;entryY=0;entryDx=0;entryDy=0;startArrow=classic;startFill=1;" parent="1" source="zuMCJyA3_h6aEVutl5TH-4" target="zuMCJyA3_h6aEVutl5TH-8" edge="1">
                    <mxGeometry relative="1" as="geometry"/>
                </mxCell>
                <mxCell id="zuMCJyA3_h6aEVutl5TH-4" value="App" style="whiteSpace=wrap;html=1;" parent="1" vertex="1">
                    <mxGeometry x="470" y="480" width="90" height="40" as="geometry"/>
                </mxCell>
                <mxCell id="zuMCJyA3_h6aEVutl5TH-7" value="Azure" style="text;html=1;align=center;verticalAlign=middle;resizable=0;points=[];autosize=1;strokeColor=none;fillColor=none;" parent="1" vertex="1">
                    <mxGeometry x="414" y="450" width="50" height="30" as="geometry"/>
                </mxCell>
                <mxCell id="zuMCJyA3_h6aEVutl5TH-11" style="edgeStyle=none;rounded=0;orthogonalLoop=1;jettySize=auto;html=1;exitX=1;exitY=0.5;exitDx=0;exitDy=0;entryX=0;entryY=0.5;entryDx=0;entryDy=0;startArrow=classic;startFill=1;" parent="1" source="zuMCJyA3_h6aEVutl5TH-8" target="zuMCJyA3_h6aEVutl5TH-10" edge="1">
                    <mxGeometry relative="1" as="geometry"/>
                </mxCell>
                <mxCell id="zuMCJyA3_h6aEVutl5TH-8" value="App Backend" style="whiteSpace=wrap;html=1;" parent="1" vertex="1">
                    <mxGeometry x="470" y="585" width="90" height="40" as="geometry"/>
                </mxCell>
                <mxCell id="zuMCJyA3_h6aEVutl5TH-10" value="Database" style="whiteSpace=wrap;html=1;" parent="1" vertex="1">
                    <mxGeometry x="620" y="585" width="90" height="40" as="geometry"/>
                </mxCell>
                <mxCell id="zuMCJyA3_h6aEVutl5TH-14" style="edgeStyle=none;rounded=0;orthogonalLoop=1;jettySize=auto;html=1;exitX=0.5;exitY=1;exitDx=0;exitDy=0;entryX=0.5;entryY=0;entryDx=0;entryDy=0;startArrow=classic;startFill=1;" parent="1" source="zuMCJyA3_h6aEVutl5TH-12" target="zuMCJyA3_h6aEVutl5TH-10" edge="1">
                    <mxGeometry relative="1" as="geometry"/>
                </mxCell>
                <mxCell id="zuMCJyA3_h6aEVutl5TH-12" value="Identity Core" style="whiteSpace=wrap;html=1;" parent="1" vertex="1">
                    <mxGeometry x="620" y="480" width="90" height="40" as="geometry"/>
                </mxCell>
            </root>
        </mxGraphModel>
    </diagram>
</mxfile>